<svg width="61" height="60" viewBox="0 0 61 60" fill="none" xmlns="http://www.w3.org/2000/svg">
<circle cx="30.3015" cy="29.999" r="30" fill="#DCC080"/>
<path d="M35.1402 37.6431H25.4628C24.8579 35.7681 23.6483 34.0746 22.4386 32.4415C22.1362 32.0181 21.8338 31.5948 21.5313 31.1714C20.3217 29.4173 19.6563 27.3609 19.6563 25.0625C19.6563 19.1956 24.3741 14.4173 30.3015 14.4173C36.1684 14.4173 40.9467 19.1956 40.9467 25.123C40.9467 27.3609 40.2209 29.4173 39.0112 31.1714C38.7088 31.5948 38.4063 32.0181 38.1039 32.4415C36.8942 34.0746 35.6846 35.7681 35.1402 37.6431ZM30.3015 45.3851C27.5797 45.3851 25.4628 43.2681 25.4628 40.5464V39.5786H35.1402V40.5464C35.1402 43.2681 32.9628 45.3851 30.3015 45.3851ZM30.3015 18.2883C29.4547 18.2883 28.8499 18.9536 28.8499 19.7399V26.5141C28.8499 27.3609 29.4547 27.9657 30.3015 27.9657C31.0878 27.9657 31.7531 27.3609 31.7531 26.5141V19.7399C31.7531 18.9536 31.0878 18.2883 30.3015 18.2883ZM28.366 31.8367C28.366 32.9254 29.2128 33.7722 30.3015 33.7722C31.3297 33.7722 32.237 32.9254 32.237 31.8367C32.237 30.8085 31.3297 29.9012 30.3015 29.9012C29.2128 29.9012 28.366 30.8085 28.366 31.8367Z" fill="#131E36"/>
</svg>
