<?xml version="1.0" encoding="UTF-8"?>
<svg id="Layer_2" data-name="Layer 2" xmlns="http://www.w3.org/2000/svg" viewBox="0 0 502.44 107.11">
  <defs>
    <style>
      .cls-1 {
        fill: #002851;
      }

      .cls-1, .cls-2 {
        stroke-width: 0px;
      }

      .cls-2 {
        fill: #256683;
      }
    </style>
  </defs>
  <g id="Layer_1-2" data-name="Layer 1">
    <g>
      <g>
        <path class="cls-2" d="M101.95,100.39v6.53h-4.5v-18.63h7.3c2.21,0,3.9.55,5.06,1.65s1.74,2.58,1.74,4.44c0,1.16-.26,2.19-.78,3.1-.52.9-1.29,1.62-2.31,2.13-1.02.52-2.26.78-3.71.78h-2.79ZM106.96,94.38c0-1.63-.9-2.45-2.71-2.45h-2.29v4.85h2.29c1.81,0,2.71-.8,2.71-2.4Z"/>
        <path class="cls-2" d="M142.44,103.47h6.01v3.45h-10.51v-18.63h4.51v15.18Z"/>
        <path class="cls-2" d="M186.25,103.52h-6.98l-1.16,3.4h-4.74l6.82-18.5h5.19l6.82,18.5h-4.79l-1.16-3.4ZM185.1,100.1l-2.32-6.85-2.34,6.85h4.66Z"/>
        <path class="cls-2" d="M231.52,88.29v3.58h-5.06v15.04h-4.53v-15.04h-5.01v-3.58h14.6Z"/>
        <path class="cls-2" d="M269.74,88.29v3.58h-7.64v4.08h5.9v3.42h-5.9v7.54h-4.51v-18.63h12.15Z"/>
        <path class="cls-2" d="M309.88,89.23c1.43.82,2.56,1.95,3.39,3.4.83,1.45,1.24,3.09,1.24,4.91s-.42,3.47-1.25,4.93c-.83,1.46-1.97,2.6-3.4,3.41-1.43.82-3.02,1.23-4.75,1.23s-3.32-.41-4.76-1.23c-1.43-.82-2.56-1.95-3.4-3.41-.83-1.46-1.25-3.1-1.25-4.93s.42-3.46,1.25-4.91c.83-1.45,1.97-2.58,3.4-3.4,1.43-.82,3.02-1.22,4.76-1.22s3.35.41,4.78,1.22ZM301.58,93.63c-.87.96-1.3,2.26-1.3,3.91s.44,2.93,1.3,3.9c.87.97,2.04,1.45,3.52,1.45s2.62-.48,3.5-1.45c.88-.97,1.32-2.27,1.32-3.9s-.43-2.93-1.3-3.9c-.87-.97-2.04-1.45-3.52-1.45s-2.65.48-3.52,1.44Z"/>
        <path class="cls-2" d="M350.78,106.92l-4.03-7.04h-1.03v7.04h-4.5v-18.63h7.69c1.47,0,2.72.25,3.74.76,1.02.51,1.78,1.21,2.29,2.09.51.89.76,1.9.76,3.04,0,1.35-.37,2.5-1.12,3.45-.75.95-1.83,1.6-3.25,1.95l4.43,7.32h-4.98ZM345.72,96.8h2.79c.9,0,1.55-.2,1.98-.59.42-.4.63-.98.63-1.75s-.22-1.32-.65-1.74c-.43-.42-1.08-.63-1.96-.63h-2.79v4.72Z"/>
        <path class="cls-2" d="M403.11,88.42v18.5h-4.51v-11.57l-4,11.57h-3.9l-4.03-11.59v11.59h-4.51v-18.5h5.51l5.03,12.88,4.93-12.88h5.48Z"/>
      </g>
      <g>
        <g>
          <path class="cls-1" d="M320.29,70.76l15.97-38.98h12.11l15.97,38.98h-12.74l-11.79-32.75h4.8l-11.8,32.75h-12.53ZM329.79,63.97l3.13-9.47h16.81l3.13,9.47h-23.07Z"/>
          <path class="cls-1" d="M381.74,71.65c-5.6,0-9.97-1.61-13.1-4.84-3.13-3.23-4.7-7.76-4.7-13.59v-21.44h12.32v21.05c0,2.97.5,5.08,1.51,6.32,1.01,1.24,2.37,1.87,4.07,1.87s3.11-.62,4.1-1.87c.99-1.24,1.49-3.35,1.49-6.32v-21.05h12.11v21.44c0,5.83-1.57,10.36-4.7,13.59-3.13,3.23-7.5,4.84-13.1,4.84Z"/>
          <path class="cls-1" d="M403.88,70.76V31.78h18.01c4.07,0,7.65.79,10.75,2.37,3.1,1.58,5.51,3.82,7.25,6.71,1.74,2.9,2.61,6.37,2.61,10.41s-.87,7.47-2.61,10.39c-1.74,2.92-4.16,5.16-7.25,6.74-3.1,1.58-6.68,2.37-10.75,2.37h-18.01ZM416.19,60.51h5.17c1.74,0,3.26-.35,4.57-1.06s2.32-1.75,3.05-3.15c.73-1.39,1.1-3.07,1.1-5.04s-.37-3.69-1.1-5.07-1.75-2.41-3.05-3.12c-1.3-.71-2.83-1.06-4.57-1.06h-5.17v18.49Z"/>
          <path class="cls-1" d="M445.69,70.76V31.78h12.32v38.98h-12.32Z"/>
          <path class="cls-1" d="M481.87,71.65c-2.99,0-5.75-.5-8.27-1.5-2.52-1-4.71-2.42-6.55-4.26-1.84-1.84-3.28-4-4.31-6.49-1.03-2.49-1.54-5.2-1.54-8.13s.51-5.69,1.54-8.16c1.03-2.47,2.46-4.62,4.31-6.46,1.84-1.84,4.03-3.26,6.55-4.26,2.52-1,5.26-1.5,8.22-1.5s5.74.5,8.25,1.5c2.5,1,4.68,2.42,6.52,4.26,1.84,1.84,3.28,3.99,4.31,6.46,1.03,2.47,1.54,5.19,1.54,8.16s-.51,5.64-1.54,8.13c-1.03,2.49-2.46,4.65-4.31,6.49s-4.02,3.26-6.52,4.26c-2.51,1-5.24,1.5-8.19,1.5ZM481.82,61.02c1.15,0,2.22-.22,3.21-.67.99-.45,1.86-1.09,2.61-1.92.75-.84,1.33-1.86,1.75-3.06.42-1.21.63-2.57.63-4.09s-.21-2.89-.63-4.09-1-2.23-1.75-3.06c-.75-.83-1.62-1.48-2.61-1.92-.99-.45-2.06-.67-3.21-.67s-2.22.22-3.21.67c-.99.45-1.86,1.09-2.61,1.92s-1.33,1.86-1.75,3.06c-.42,1.21-.63,2.57-.63,4.09s.21,2.89.63,4.09c.42,1.21,1,2.23,1.75,3.06.75.83,1.62,1.48,2.61,1.92.99.45,2.06.67,3.21.67Z"/>
        </g>
        <g>
          <path class="cls-1" d="M46.34,47.41c0,15.3-12.55,27.74-27.97,27.74H5.82c-3.25,0-5.82-2.77-5.82-6V25.67c0-3.3,2.72-6,6.05-6h12.32c15.42,0,27.97,12.45,27.97,27.74ZM34.17,47.41c0-8.7-7.11-15.75-15.8-15.75h-6.27v31.49h6.27c8.69,0,15.8-7.05,15.8-15.75Z"/>
          <path class="cls-1" d="M64.86,75.76c-9.22,0-16.71-7.42-16.71-16.57v-15.6c0-3.22,2.65-5.92,6.05-5.92s5.97,2.7,5.97,5.92v15.6c0,2.55,2.12,4.65,4.69,4.65s4.69-2.1,4.69-4.65v-15.6c0-3.22,2.65-5.92,5.97-5.92s6.05,2.7,6.05,5.92v15.6c0,9.15-7.48,16.57-16.71,16.57Z"/>
          <path class="cls-1" d="M122.46,56.56c0,10.57-8.69,19.2-19.35,19.2-3.4,0-6.65-.9-9.45-2.4-1.06,1.12-2.49,1.8-4.16,1.8-3.25,0-5.75-2.47-5.75-5.7V31.52c0-3,2.57-5.55,5.59-5.62h.6c3.25,0,5.82,2.62,5.82,5.92v6.97c2.19-.9,4.76-1.42,7.33-1.42,10.66,0,19.35,8.62,19.35,19.2ZM110.45,56.56c0-4.05-3.33-7.27-7.33-7.27s-7.33,3.22-7.33,7.27,3.33,7.27,7.33,7.27,7.33-3.3,7.33-7.27Z"/>
          <path class="cls-1" d="M161.47,43.29v26.24c0,3.07-2.57,5.62-5.67,5.62-1.66,0-3.17-.75-4.23-1.8-2.87,1.5-5.97,2.4-9.45,2.4-10.66,0-19.35-8.62-19.35-19.2s8.69-19.2,19.35-19.2c3.33,0,6.42.9,9.3,2.4,1.06-1.35,2.57-2.1,4.38-2.1,3.1,0,5.67,2.55,5.67,5.62ZM149.45,56.56c0-4.05-3.25-7.27-7.33-7.27s-7.33,3.22-7.33,7.27,3.25,7.27,7.33,7.27,7.33-3.22,7.33-7.27Z"/>
          <path class="cls-1" d="M218.02,45.76l-10.58,25.72c-1.44,3.45-4.23,3.67-5.59,3.67-2.04,0-4.46-1.05-5.37-3.22l-5.75-14.1-5.82,14.1c-.83,2.02-2.8,3.22-4.84,3.22-1.36,0-4.69-.22-6.12-3.67l-10.58-25.72c-1.29-3.07.23-6.45,3.25-7.72,3.1-1.27,6.58.15,7.79,3.22l5.9,14.32,5.52-13.35c.83-2.02,2.8-3.22,4.91-3.22s4.01,1.2,4.84,3.22l5.52,13.35,5.9-14.32c1.21-3.07,4.76-4.5,7.79-3.22,3.02,1.28,4.54,4.65,3.25,7.72Z"/>
          <path class="cls-1" d="M255.97,43.29v26.24c0,3.07-2.57,5.62-5.67,5.62-1.66,0-3.17-.75-4.23-1.8-2.87,1.5-5.97,2.4-9.45,2.4-10.66,0-19.35-8.62-19.35-19.2s8.69-19.2,19.35-19.2c3.33,0,6.42.9,9.3,2.4,1.06-1.35,2.57-2.1,4.38-2.1,3.1,0,5.67,2.55,5.67,5.62ZM243.95,56.56c0-4.05-3.25-7.27-7.33-7.27s-7.33,3.22-7.33,7.27,3.25,7.27,7.33,7.27,7.33-3.22,7.33-7.27Z"/>
        </g>
        <rect class="cls-1" x="289.48" y="0" width="5.74" height="80.14" rx="2.87" ry="2.87"/>
        <rect class="cls-1" x="300.52" y="15.78" width="5.74" height="48.34" rx="2.87" ry="2.87"/>
        <rect class="cls-1" x="278.88" y="15.78" width="5.74" height="48.34" rx="2.87" ry="2.87"/>
        <rect class="cls-1" x="311.12" y="26.4" width="5.74" height="26.97" rx="2.87" ry="2.87"/>
        <rect class="cls-1" x="268.28" y="26.41" width="5.74" height="26.97" rx="2.87" ry="2.87"/>
        <rect class="cls-1" x="321.73" y="31.78" width="5.74" height="16.23" rx="2.87" ry="2.87"/>
        <rect class="cls-1" x="257.67" y="31.79" width="5.74" height="16.23" rx="2.87" ry="2.87"/>
      </g>
    </g>
  </g>
</svg>