<svg width="567" height="602" viewBox="0 0 567 602" fill="none" xmlns="http://www.w3.org/2000/svg">
<g clip-path="url(#clip0_79_281)">
<path d="M23.0983 371.955C10.3401 371.955 0 361.615 0 348.857V253.125C0 240.367 10.3401 230.027 23.0983 230.027C35.8565 230.027 46.1966 240.367 46.1966 253.125V348.857C46.1966 361.615 35.8565 371.955 23.0983 371.955Z" fill="#131E36"/>
<path d="M109.717 419.83C96.9588 419.83 86.6187 409.49 86.6187 396.732V205.268C86.6187 192.51 96.9588 182.17 109.717 182.17C122.475 182.17 132.815 192.51 132.815 205.268V396.732C132.815 409.49 122.475 419.83 109.717 419.83Z" fill="#131E36"/>
<path d="M196.336 515.562C183.577 515.562 173.237 505.222 173.237 492.463V109.537C173.237 96.7783 183.577 86.4382 196.336 86.4382C209.094 86.4382 219.434 96.7783 219.434 109.537V492.463C219.434 505.222 209.094 515.562 196.336 515.562Z" fill="#131E36"/>
<path d="M283.135 602C270.377 602 260.037 591.66 260.037 578.902L259.856 23.0983C259.856 10.3401 270.196 0 282.955 0C295.713 0 306.053 10.3401 306.053 23.0983L306.233 578.902C306.233 591.66 295.893 602 283.135 602Z" fill="#131E36"/>
<path d="M369.754 515.562C356.995 515.562 346.655 505.222 346.655 492.463V109.537C346.655 96.7783 356.995 86.4382 369.754 86.4382C382.512 86.4382 392.852 96.7783 392.852 109.537V492.463C392.852 505.222 382.512 515.562 369.754 515.562Z" fill="#131E36"/>
<path d="M456.372 419.83C443.614 419.83 433.274 409.49 433.274 396.732V205.268C433.274 192.51 443.614 182.17 456.372 182.17C469.13 182.17 479.471 192.51 479.471 205.268V396.732C479.471 409.49 469.13 419.83 456.372 419.83Z" fill="#131E36"/>
<path d="M542.991 371.955C530.233 371.955 519.893 361.615 519.893 348.857V253.125C519.893 240.367 530.233 230.027 542.991 230.027C555.749 230.027 566.089 240.367 566.089 253.125V348.857C566.089 361.615 555.749 371.955 542.991 371.955Z" fill="#131E36"/>
</g>
<defs>
<clipPath id="clip0_79_281">
<rect width="566.089" height="602" fill="white"/>
</clipPath>
</defs>
</svg>
