<svg width="61" height="61" viewBox="0 0 61 61" fill="none" xmlns="http://www.w3.org/2000/svg">
<circle cx="30.3589" cy="30.0448" r="30" fill="#86BEF7"/>
<path d="M19.4718 18.7575C20.3185 19.4833 20.4395 20.693 19.7742 21.4793C17.8992 23.8382 16.8105 26.7414 16.8105 29.947C16.8105 33.1527 17.8992 36.1164 19.7742 38.4148C20.4395 39.2616 20.2581 40.4712 19.4718 41.1366C18.625 41.8624 17.4153 41.6809 16.75 40.8341C14.3306 37.8704 12.9395 34.1204 12.9395 29.947C12.9395 25.8341 14.3306 22.0841 16.75 19.06C17.4153 18.2737 18.625 18.0922 19.4718 18.7575ZM41.1855 18.7575C42.0323 18.0922 43.2419 18.2737 43.9073 19.06C46.3266 22.0841 47.7782 25.8341 47.7782 29.947C47.7782 34.1204 46.3266 37.8704 43.9073 40.8341C43.2419 41.6809 42.0323 41.8019 41.1855 41.1366C40.3992 40.4712 40.2177 39.2616 40.8831 38.4148C42.7581 36.1164 43.8468 33.1527 43.8468 29.947C43.8468 26.7414 42.7581 23.8382 40.8831 21.4793C40.2177 20.693 40.3992 19.4833 41.1855 18.7575ZM26.9718 29.947C26.9718 28.7374 27.5766 27.6487 28.6653 27.0438C29.6935 26.439 30.9637 26.439 32.0524 27.0438C33.0806 27.6487 33.746 28.7374 33.746 29.947C33.746 31.2172 33.0806 32.3059 32.0524 32.9108C30.9637 33.5156 29.6935 33.5156 28.6653 32.9108C27.5766 32.3059 26.9718 31.2172 26.9718 29.947ZM25.2782 25.4712C24.1895 26.6809 23.5847 28.2535 23.5847 29.947C23.5847 31.7011 24.1895 33.2737 25.2782 34.4833C26.004 35.2696 25.9435 36.5398 25.1573 37.2051C24.3105 37.9309 23.1008 37.8704 22.375 37.0841C20.7419 35.2091 19.7137 32.7293 19.7137 29.947C19.7137 27.2253 20.7419 24.7454 22.375 22.8704C23.1008 22.0841 24.3105 22.0237 25.1573 22.7495C25.9435 23.4148 26.004 24.685 25.2782 25.4712ZM38.2823 22.8704C39.9758 24.7454 41.004 27.2253 41.004 29.947C41.004 32.7293 39.9758 35.2091 38.2823 37.0841C37.5565 37.8704 36.3468 37.9309 35.5605 37.2051C34.7137 36.4793 34.6532 35.2696 35.379 34.4833C36.4677 33.2737 37.1331 31.7011 37.1331 29.947C37.1331 28.2535 36.4677 26.6809 35.379 25.4712C34.6532 24.6245 34.7137 23.4148 35.5605 22.689C36.3468 22.0237 37.5565 22.0841 38.2823 22.8704Z" fill="#131E36"/>
</svg>
