<svg width="61" height="60" viewBox="0 0 61 60" fill="none" xmlns="http://www.w3.org/2000/svg">
<circle cx="30.8589" cy="29.999" r="30" fill="#EFA28E"/>
<path d="M36.6048 36.9173C39.5081 35.0423 41.504 31.7762 41.504 27.9657C41.504 22.0988 36.7258 17.3206 30.8589 17.3206C24.9315 17.3206 20.2137 22.0988 20.2137 27.9657C20.2137 31.7762 22.1492 35.0423 25.0524 36.9173C25.1129 38.006 25.2944 39.2157 25.4758 40.4254L25.5363 40.4859C20.6976 38.369 17.3105 33.5907 17.3105 27.9657C17.3105 20.5262 23.3589 14.4173 30.8589 14.4173C38.2984 14.4173 44.4073 20.5262 44.4073 27.9657C44.4073 33.5907 41.0202 38.369 36.1815 40.4859V40.3649C36.3629 39.2157 36.5444 38.006 36.6048 36.9173ZM36.4839 34.619C36.3629 34.3165 36.2419 33.9536 36.0605 33.6512C35.6976 33.0464 35.2137 32.623 34.7298 32.3206C35.879 31.2319 36.6653 29.7198 36.6653 27.9657C36.6653 24.7601 34.0645 22.1593 30.8589 22.1593C27.6532 22.1593 25.0524 24.7601 25.0524 27.9657C25.0524 29.7198 25.7782 31.2319 26.9274 32.3206C26.4435 32.623 25.9597 33.0464 25.5968 33.6512C25.4153 33.9536 25.2944 34.3165 25.1734 34.619C23.2984 33.0464 22.1492 30.627 22.1492 27.9657C22.1492 23.1875 26.0202 19.256 30.8589 19.256C35.6371 19.256 39.5685 23.1875 39.5685 27.9657C39.5685 30.627 38.3589 33.0464 36.4839 34.619ZM30.8589 33.2883C32.7944 33.2883 34.7298 33.8327 34.7298 35.9496C34.7298 37.9456 33.9435 42.2399 33.4597 43.994C33.1573 45.1431 31.9476 45.4456 30.8589 45.4456C29.7097 45.4456 28.5 45.1431 28.1976 43.994C27.7137 42.3004 26.9879 37.9456 26.9879 35.9496C26.9879 33.8327 28.8629 33.3488 30.8589 33.3488V33.2883ZM30.8589 24.5786C32.0685 24.5786 33.1573 25.244 33.7621 26.2722C34.3669 27.3609 34.3669 28.631 33.7621 29.6593C33.1573 30.748 32.0685 31.3528 30.8589 31.3528C29.5887 31.3528 28.5 30.748 27.8952 29.6593C27.2903 28.631 27.2903 27.3609 27.8952 26.2722C28.5 25.244 29.5887 24.5786 30.8589 24.5786Z" fill="#131E36"/>
</svg>
